0
SECTION
2
HEADER
9
$INSUNITS
70
4
9
$ACADVER
1
AC1014
9
$HANDSEED
5
FFFF
0
ENDSEC
0
SECTION
2
TABLES
0
TABLE
2
VPORT
5
8
100
AcDbSymbolTable
0
ENDTAB
0
TABLE
2
LTYPE
5
5
100
AcDbSymbolTable
0
LTYPE
5
14
100
AcDbSymbolTableRecord
100
AcDbLinetypeTableRecord
2
BYBLOCK
70
0
0
LTYPE
5
15
100
AcDbSymbolTableRecord
100
AcDbLinetypeTableRecord
2
BYLAYER
70
0
0
ENDTAB
0
TABLE
2
LAYER
5
2
100
AcDbSymbolTable
70
2
0
LAYER
5
50
100
AcDbSymbolTableRecord
100
AcDbLayerTableRecord
2
0
70
0
6
CONTINUOUS
0
ENDTAB
0
TABLE
2
STYLE
5
3
100
AcDbSymbolTable
70
1
0
STYLE
5
11
100
AcDbSymbolTableRecord
100
AcDbTextStyleTableRecord
2
STANDARD
70
0
0
ENDTAB
0
TABLE
2
VIEW
5
6
100
AcDbSymbolTable
70
0
0
ENDTAB
0
TABLE
2
UCS
5
7
100
AcDbSymbolTable
70
0
0
ENDTAB
0
TABLE
2
APPID
5
9
100
AcDbSymbolTable
70
2
0
APPID
5
12
100
AcDbSymbolTableRecord
100
AcDbRegAppTableRecord
2
ACAD
70
0
0
ENDTAB
0
TABLE
2
DIMSTYLE
5
A
100
AcDbSymbolTable
70
1
0
ENDTAB
0
TABLE
2
BLOCK_RECORD
5
1
100
AcDbSymbolTable
70
1
0
BLOCK_RECORD
5
1F
100
AcDbSymbolTableRecord
100
AcDbBlockTableRecord
2
*MODEL_SPACE
0
BLOCK_RECORD
5
1B
100
AcDbSymbolTableRecord
100
AcDbBlockTableRecord
2
*PAPER_SPACE
0
ENDTAB
0
ENDSEC
0
SECTION
2
BLOCKS
0
BLOCK
5
20
100
AcDbEntity
100
AcDbBlockBegin
2
*MODEL_SPACE
0
ENDBLK
5
21
100
AcDbEntity
100
AcDbBlockEnd
0
BLOCK
5
1C
100
AcDbEntity
100
AcDbBlockBegin
2
*PAPER_SPACE
0
ENDBLK
5
1D
100
AcDbEntity
100
AcDbBlockEnd
0
ENDSEC
0
SECTION
2
ENTITIES
0
LINE
5
100
100
AcDbEntity
8
0
100
AcDbLine
10
148.18009591255981
20
149.64970899676609
30
0
11
-151.81990408744019
21
149.64970899676609
31
0
0
LINE
5
101
100
AcDbEntity
8
0
100
AcDbLine
10
-151.81990408744019
20
149.64970899676609
30
0
11
-151.81990408744019
21
-150.35029100323393
31
0
0
LINE
5
102
100
AcDbEntity
8
0
100
AcDbLine
10
-151.81990408744019
20
-150.35029100323393
30
0
11
148.18009591255981
21
-150.35029100323393
31
0
0
LINE
5
103
100
AcDbEntity
8
0
100
AcDbLine
10
148.18009591255981
20
-150.35029100323393
30
0
11
148.18009591255981
21
149.64970899676609
31
0
0
LINE
5
104
100
AcDbEntity
8
0
100
AcDbLine
10
148.18009591255981
20
149.64970899676609
30
0
11
-151.81990408744019
21
-150.35029100323393
31
0
0
LINE
5
105
100
AcDbEntity
8
0
100
AcDbLine
10
-151.81990408744019
20
149.64970899676609
30
0
11
148.18009591255981
21
-150.35029100323393
31
0
0
LWPOLYLINE
5
106
100
AcDbEntity
8
0
100
AcDbPolyline
90
10
70
1
43
0.0
10
119.53264506880191
20
87.817496840637048
10
148.18009591255981
20
-0.35029100323392015
10
119.53264506880195
20
-88.518078847104888
10
44.532645068801948
20
-143.00876844750698
10
-48.172453243682305
20
-143.00876844750701
10
-123.17245324368233
20
-88.518078847104931
10
-151.81990408744025
20
-0.35029100323393791
10
-123.17245324368236
20
87.817496840637048
10
-48.172453243682341
20
142.30818644103914
10
44.532645068801912
20
142.30818644103914
0
CIRCLE
5
107
100
AcDbEntity
8
0
100
AcDbCircle
10
-1.8199040874402073
20
-0.35029100323392015
30
0
40
13.5
0
LWPOLYLINE
5
108
100
AcDbEntity
8
0
100
AcDbPolyline
90
10
70
1
43
0.0
10
-146.5625929662489
20
-0.35029100323392015
10
-118.91919920192214
20
84.727326896887604
10
-46.547854762517808
20
137.30818644103914
10
42.908046587637337
20
137.30818644103917
10
115.27939102704173
20
84.727326896887547
10
142.92278479136843
20
-0.35029100323395568
10
115.27939102704174
20
-85.427908903355416
10
42.908046587637429
20
-138.00876844750698
10
-46.547854762517773
20
-138.00876844750701
10
-118.91919920192214
20
-85.427908903355473
0
LWPOLYLINE
5
109
100
AcDbEntity
8
0
100
AcDbPolyline
90
10
70
1
43
0.0
10
-141.30528184505755
20
-0.35029100323392015
10
-114.66594516016194
20
81.637156953138145
10
-44.923256281353275
20
132.30818644103914
10
41.28344810647279
20
132.30818644103917
10
111.02613698528152
20
81.637156953138117
10
137.66547367017711
20
-0.35029100323397344
10
111.02613698528157
20
-82.337738959605957
10
41.283448106472875
20
-133.00876844750698
10
-44.923256281353254
20
-133.00876844750701
10
-114.66594516016194
20
-82.337738959605957
0
LWPOLYLINE
5
110
100
AcDbEntity
8
0
100
AcDbPolyline
90
10
70
1
43
0.0
10
-136.04797072386623
20
-0.35029100323393791
10
-110.41269111840177
20
78.546987009388616
10
-43.298657800188707
20
127.30818644103913
10
39.658849625308292
20
127.30818644103913
10
106.77288294352131
20
78.546987009388602
10
132.40816254898579
20
-0.3502910032339912
10
106.77288294352132
20
-79.247569015856484
10
39.658849625308328
20
-128.00876844750698
10
-43.298657800188707
20
-128.00876844750701
10
-110.41269111840172
20
-79.247569015856513
0
LWPOLYLINE
5
111
100
AcDbEntity
8
0
100
AcDbPolyline
90
10
70
1
43
0.0
10
-130.79065960267488
20
-0.35029100323390239
10
-106.15943707664155
20
75.456817065639143
10
-41.674059319024217
20
122.30818644103913
10
38.034251144143767
20
122.30818644103913
10
102.51962890176111
20
75.456817065639171
10
127.15085142779444
20
-0.35029100323397344
10
102.51962890176117
20
-76.157399072106998
10
38.034251144143802
20
-123.00876844750698
10
-41.674059319024167
20
-123.00876844750702
10
-106.15943707664155
20
-76.157399072107026
0
LWPOLYLINE
5
112
100
AcDbEntity
8
0
100
AcDbPolyline
90
10
70
1
43
0.0
10
-125.53334848148356
20
-0.35029100323392015
10
-101.90618303488135
20
72.366647121889685
10
-40.049460837859677
20
117.30818644103913
10
36.409652662979241
20
117.30818644103914
10
98.266374860000923
20
72.366647121889699
10
121.8935403066031
20
-0.3502910032339912
10
98.266374860000965
20
-73.067229128357511
10
36.40965266297929
20
-118.00876844750698
10
-40.049460837859655
20
-118.00876844750701
10
-101.90618303488134
20
-73.067229128357567
0
LWPOLYLINE
5
113
100
AcDbEntity
8
0
100
AcDbPolyline
90
10
70
1
43
0.0
10
-120.27603736029221
20
-0.35029100323392015
10
-97.652928993121151
20
69.276477178140198
10
-38.424862356695122
20
112.30818644103913
10
34.785054181814687
20
112.30818644103917
10
94.013120818240722
20
69.276477178140212
10
116.63622918541178
20
-0.35029100323395568
10
94.013120818240736
20
-69.977059184608066
10
34.785054181814772
20
-113.00876844750698
10
-38.424862356695108
20
-113.00876844750701
10
-97.652928993121151
20
-69.977059184608066
0
LWPOLYLINE
5
114
100
AcDbEntity
8
0
100
AcDbPolyline
90
10
70
1
43
0.0
10
-115.01872623910089
20
-0.35029100323392015
10
-93.39967495136095
20
66.186307234390739
10
-36.800263875530604
20
107.30818644103913
10
33.160455700650147
20
107.30818644103914
10
89.759866776480521
20
66.186307234390739
10
111.37891806422044
20
-0.35029100323396456
10
89.759866776480536
20
-66.886889240858579
10
33.160455700650203
20
-108.00876844750698
10
-36.800263875530575
20
-108.00876844750701
10
-93.399674951360936
20
-66.886889240858622
0
LWPOLYLINE
5
115
100
AcDbEntity
8
0
100
AcDbPolyline
90
10
70
1
43
0.0
10
-109.76141511790955
20
-0.35029100323391127
10
-89.146420909600749
20
63.096137290641252
10
-35.175665394366071
20
102.30818644103913
10
31.535857219485621
20
102.30818644103917
10
85.506612734720321
20
63.096137290641252
10
106.12160694302909
20
-0.35029100323395568
10
85.506612734720335
20
-63.796719297109121
10
31.535857219485681
20
-103.00876844750698
10
-35.175665394366035
20
-103.00876844750701
10
-89.146420909600735
20
-63.796719297109128
0
LWPOLYLINE
5
116
100
AcDbEntity
8
0
100
AcDbPolyline
90
10
70
1
43
0.0
10
-104.50410399671821
20
-0.35029100323392903
10
-84.893166867840563
20
60.005967346891765
10
-33.551066913201538
20
97.308186441039126
10
29.911258738321102
20
97.30818644103914
10
81.253358692960106
20
60.005967346891808
10
100.86429582183776
20
-0.3502910032339468
10
81.25335869296012
20
-60.706549353359655
10
29.911258738321152
20
-98.008768447506981
10
-33.551066913201538
20
-98.008768447507009
10
-84.893166867840534
20
-60.706549353359662
0
LWPOLYLINE
5
117
100
AcDbEntity
8
0
100
AcDbPolyline
90
10
70
1
43
0.0
10
-99.246792875526864
20
-0.35029100323392015
10
-80.639912826080348
20
56.915797403142307
10
-31.926468432037023
20
92.308186441039126
10
28.286660257156548
20
92.308186441039169
10
77.000104651199905
20
56.915797403142307
10
95.606984700646436
20
-0.35029100323395568
10
77.000104651199948
20
-57.616379409610168
10
28.286660257156626
20
-93.008768447506981
10
-31.92646843203697
20
-93.008768447507009
10
-80.63991282608032
20
-57.616379409610175
0
LWPOLYLINE
5
118
100
AcDbEntity
8
0
100
AcDbPolyline
90
10
70
1
43
0.0
10
-76.386658784320133
20
53.825627459392827
10
-30.301869950872479
20
87.308186441039126
10
26.662061775992008
20
87.308186441039169
10
72.746850609439718
20
53.82562745939282
10
90.349673579455072
20
-0.35029100323395568
10
72.746850609439718
20
-54.526209465860717
10
26.66206177599209
20
-88.008768447506981
10
-30.301869950872458
20
-88.008768447507009
10
-76.386658784320147
20
-54.526209465860688
10
-93.989481754335529
20
-0.35029100323391127
0
LWPOLYLINE
5
119
100
AcDbEntity
8
0
100
AcDbPolyline
90
10
70
1
43
0.0
10
-72.133404742559946
20
50.735457515643354
10
-28.67727146970795
20
82.308186441039126
10
25.037463294827511
20
82.308186441039126
10
68.493596567679518
20
50.735457515643361
10
85.09236245826375
20
-0.35029100323395568
10
68.493596567679532
20
-51.436039522111223
10
25.037463294827546
20
-83.008768447506981
10
-28.67727146970795
20
-83.008768447507009
10
-72.133404742559932
20
-51.436039522111237
10
-88.732170633144207
20
-0.35029100323393791
0
LWPOLYLINE
5
120
100
AcDbEntity
8
0
100
AcDbPolyline
90
10
70
1
43
0.0
10
-67.880150700799732
20
47.645287571893896
10
-27.052672988543431
20
77.308186441039112
10
23.412864813663006
20
77.308186441039126
10
64.240342525919303
20
47.645287571893924
10
79.835051337072414
20
-0.35029100323395568
10
64.240342525919345
20
-48.345869578361743
10
23.412864813663006
20
-78.008768447506981
10
-27.052672988543414
20
-78.008768447507009
10
-67.880150700799732
20
-48.345869578361764
10
-83.474859511952872
20
-0.35029100323392903
0
LWPOLYLINE
5
121
100
AcDbEntity
8
0
100
AcDbPolyline
90
10
70
1
43
0.0
10
-63.626896659039545
20
44.555117628144387
10
-25.428074507378877
20
72.308186441039112
10
21.788266332498445
20
72.30818644103914
10
59.987088484159102
20
44.55511762814443
10
74.577740215881079
20
-0.35029100323396456
10
59.987088484159131
20
-45.255699634612284
10
21.78826633249848
20
-73.008768447506981
10
-25.428074507378867
20
-73.008768447507009
10
-63.626896659039538
20
-45.255699634612284
10
-78.217548390761522
20
-0.35029100323392015
0
LWPOLYLINE
5
122
100
AcDbEntity
8
0
100
AcDbPolyline
90
10
70
1
43
0.0
10
-59.37364261727933
20
41.464947684394929
10
-23.803476026214359
20
67.308186441039112
10
20.163667851333908
20
67.30818644103914
10
55.733834442398908
20
41.464947684394943
10
69.320429094689743
20
-0.35029100323397344
10
55.733834442398937
20
-42.16552969086279
10
20.163667851333944
20
-68.008768447506995
10
-23.803476026214341
20
-68.008768447507009
10
-59.373642617279344
20
-42.165529690862812
10
-72.960237269570186
20
-0.35029100323392903
0
LWPOLYLINE
5
123
100
AcDbEntity
8
0
100
AcDbPolyline
90
10
70
1
43
0.0
10
-55.120388575519151
20
38.374777740645449
10
-22.178877545049822
20
62.308186441039119
10
18.53906937016939
20
62.308186441039126
10
51.480580400638715
20
38.374777740645463
10
64.063117973498422
20
-0.35029100323395568
10
51.480580400638722
20
-39.075359747113339
10
18.539069370169436
20
-63.008768447506995
10
-22.178877545049815
20
-63.008768447507002
10
-55.120388575519151
20
-39.075359747113311
10
-67.702926148378864
20
-0.3502910032339468
0
LWPOLYLINE
5
124
100
AcDbEntity
8
0
100
AcDbPolyline
90
10
70
1
43
0.0
10
-50.867134533758943
20
35.284607796895983
10
-20.5542790638853
20
57.308186441039119
10
16.914470889004853
20
57.308186441039133
10
47.227326358878514
20
35.284607796895997
10
58.805806852307079
20
-0.3502910032339468
10
47.227326358878521
20
-35.985189803363873
10
16.914470889004896
20
-58.008768447506995
10
-20.554279063885275
20
-58.008768447507002
10
-50.867134533758964
20
-35.985189803363838
10
-62.445615027187529
20
-0.3502910032339468
0
LWPOLYLINE
5
125
100
AcDbEntity
8
0
100
AcDbPolyline
90
10
70
1
43
0.0
10
-46.613880491998749
20
32.194437853146503
10
-18.929680582720753
20
52.308186441039119
10
15.289872407840317
20
52.308186441039126
10
42.974072317118313
20
32.194437853146518
10
53.548495731115736
20
-0.3502910032339468
10
42.974072317118328
20
-32.895019859614393
10
15.289872407840361
20
-53.008768447506995
10
-18.929680582720749
20
-53.008768447506995
10
-46.613880491998771
20
-32.895019859614365
10
-57.188303905996193
20
-0.35029100323395568
0
LWPOLYLINE
5
126
100
AcDbEntity
8
0
100
AcDbPolyline
90
10
70
1
43
0.0
10
-42.360626450238556
20
29.10426790939702
10
-17.305082101556216
20
47.308186441039119
10
13.665273926675772
20
47.30818644103914
10
38.720818275358113
20
29.104267909397038
10
48.291184609924407
20
-0.35029100323393791
10
38.720818275358113
20
-29.804849915864928
10
13.665273926675825
20
-48.008768447506995
10
-17.305082101556202
20
-48.008768447507002
10
-42.36062645023857
20
-29.804849915864878
10
-51.93099278480485
20
-0.3502910032339468
0
LWPOLYLINE
5
127
100
AcDbEntity
8
0
100
AcDbPolyline
90
10
70
1
43
0.0
10
-38.107372408478355
20
26.014097965647551
10
-15.680483620391691
20
42.308186441039119
10
12.040675445511253
20
42.308186441039126
10
34.467564233597912
20
26.014097965647576
10
43.033873488733072
20
-0.3502910032339468
10
34.467564233597912
20
-26.714679972115455
10
12.040675445511306
20
-43.008768447506995
10
-15.680483620391668
20
-43.008768447507002
10
-38.107372408478362
20
-26.714679972115416
10
-46.673681663613522
20
-0.3502910032339468
0
LWPOLYLINE
5
128
100
AcDbEntity
8
0
100
AcDbPolyline
90
10
70
1
43
0.0
10
-33.854118366718147
20
22.923928021898085
10
-14.055885139227161
20
37.308186441039119
10
10.416076964346725
20
37.308186441039133
10
30.214310191837718
20
22.923928021898092
10
37.776562367541729
20
-0.35029100323395568
10
30.214310191837725
20
-23.624510028365961
10
10.416076964346743
20
-38.008768447506988
10
-14.055885139227167
20
-38.008768447506995
10
-33.854118366718154
20
-23.62451002836595
10
-41.416370542422186
20
-0.35029100323395568
0
LWPOLYLINE
5
129
100
AcDbEntity
8
0
100
AcDbPolyline
90
10
70
1
43
0.0
10
-29.600864324957953
20
19.833758078148591
10
-12.431286658062612
20
32.308186441039119
10
8.7914784831821713
20
32.308186441039133
10
25.961056150077518
20
19.833758078148605
10
32.519251246350393
20
-0.35029100323395568
10
25.961056150077528
20
-20.534340084616488
10
8.7914784831822246
20
-33.008768447506995
10
-12.431286658062612
20
-33.008768447507002
10
-29.600864324957961
20
-20.534340084616463
10
-36.159059421230843
20
-0.3502910032339468
0
LWPOLYLINE
5
130
100
AcDbEntity
8
0
100
AcDbPolyline
90
10
70
1
43
0.0
10
-25.347610283197746
20
16.743588134399126
10
-10.806688176898085
20
27.308186441039119
10
7.1668800020176437
20
27.308186441039133
10
21.707802108317313
20
16.743588134399143
10
27.261940125159061
20
-0.3502910032339468
10
21.707802108317313
20
-17.44417014086703
10
7.1668800020176882
20
-28.008768447506995
10
-10.806688176898076
20
-28.008768447507002
10
-25.347610283197763
20
-17.444170140866994
10
-30.901748300039511
20
-0.35029100323395568
0
LWPOLYLINE
5
131
100
AcDbEntity
8
0
100
AcDbPolyline
90
10
70
1
43
0.0
10
-21.094356241437538
20
13.653418190649663
10
-9.1820896957335663
20
22.308186441039119
10
5.5422815208531251
20
22.308186441039133
10
17.454548066557113
20
13.653418190649681
10
22.004629003967729
20
-0.3502910032339468
10
17.454548066557109
20
-14.354000197117568
10
5.5422815208531784
20
-23.008768447506995
10
-9.1820896957335574
20
-23.008768447506998
10
-21.094356241437563
20
-14.354000197117522
10
-25.644437178848172
20
-0.3502910032339468
0
LWPOLYLINE
5
132
100
AcDbEntity
8
0
100
AcDbPolyline
90
10
70
1
43
0.0
10
-16.841102199677344
20
10.563248246900191
10
-7.5574912145690387
20
17.308186441039119
10
3.9176830396886064
20
17.30818644103913
10
13.20129402479691
20
10.563248246900212
10
16.747317882776393
20
-0.35029100323395568
10
13.20129402479691
20
-11.263830253368091
10
3.9176830396886508
20
-18.008768447506995
10
-7.5574912145690387
20
-18.008768447506995
10
-16.841102199677358
20
-11.263830253368061
10
-20.387126057656833
20
-0.3502910032339468
0
ENDSEC
0
SECTION
2
OBJECTS
0
DICTIONARY
5
C
100
AcDbDictionary
3
ACAD_GROUP
350
D
3
ACAD_MLINESTYLE
350
17
0
DICTIONARY
5
D
100
AcDbDictionary
0
DICTIONARY
5
1A
330
C
100
AcDbDictionary
0
DICTIONARY
5
17
100
AcDbDictionary
0
ENDSEC
0
EOF
